#Comment line ignore any data following # character 
#Hierarchical Translation and Rotation (.htr) file 
[Header]	
#Header keywords are followed by a single value 
FileType HTR		#Single word string
DataType HTRS		#Translation followed by rotation and scale data
FileVersion 1		#integer
NumSegments 25		#integer
NumFrames 4		#integer
DataFrameRate 30		#integer, data frame rate in this file
EulerRotationOrder ZYX
CalibrationUnits mm
RotationUnits Degrees
GlobalAxisofGravity Y
BoneLengthAxis Y
ScaleFactor 1.00
[SegmentNames&Hierarchy]
#CHILD	PARENT
BN_Tick_Root GLOBAL
BN_Torso BN_Tick_Root
BN_L_Leg_Front01 BN_Torso
BN_L_Leg_Rear01 BN_Torso
BN_MetalTop BN_Torso
BN_Neck BN_Torso
BN_R_Leg_Front01 BN_Torso
BN_R_Leg_Rear01 BN_Torso
BN_Sack BN_Torso
BN_L_Leg_Front02 BN_L_Leg_Front01
BN_L_Leg_Front03 BN_L_Leg_Front02
BN_L_Leg_Rear02 BN_L_Leg_Rear01
BN_L_Leg_Rear03 BN_L_Leg_Rear02
BN_Head BN_Neck
BN_Needle BN_Head
BN_R_Leg_Front02 BN_R_Leg_Front01
BN_R_Leg_Front03 BN_R_Leg_Front02
BN_R_Leg_Rear02 BN_R_Leg_Rear01
BN_R_Leg_Rear03 BN_R_Leg_Rear02
BN_SackDef01 BN_Sack
BN_SackDef02 BN_Sack
BN_SackDef03 BN_Sack
BN_SackDef04 BN_Sack
BN_SackDef05 BN_Sack
BN_SackDef06 BN_Sack
[BasePosition]
#SegmentName Tx, Ty, Tz, Rx, Ry, Rz, BoneLength
BN_Tick_Root 0.000000 0.000000 0.000000 -90.000000 0.000000 0.000000 10.000000 
BN_Torso 0.000000 0.000000 0.000000 0.000000 0.000000 0.000000 10.000000 
BN_L_Leg_Front01 0.000000 0.000000 0.000000 0.000000 0.000000 0.000000 10.000000 
BN_L_Leg_Rear01 0.000000 0.000000 0.000000 0.000000 0.000000 0.000000 10.000000 
BN_MetalTop 0.000000 0.000000 0.000000 0.000000 0.000000 0.000000 10.000000 
BN_Neck 0.000000 0.000000 0.000000 0.000000 0.000000 0.000000 10.000000 
BN_R_Leg_Front01 0.000000 0.000000 0.000000 0.000000 0.000000 0.000000 10.000000 
BN_R_Leg_Rear01 0.000000 0.000000 0.000000 0.000000 0.000000 0.000000 10.000000 
BN_Sack 0.000000 0.000000 0.000000 0.000000 0.000000 0.000000 10.000000 
BN_L_Leg_Front02 0.000000 0.000000 0.000000 0.000000 0.000000 0.000000 10.000000 
BN_L_Leg_Front03 0.000000 0.000000 0.000000 0.000000 0.000000 0.000000 10.000000 
BN_L_Leg_Rear02 0.000000 0.000000 0.000000 0.000000 0.000000 0.000000 10.000000 
BN_L_Leg_Rear03 0.000000 0.000000 0.000000 0.000000 0.000000 0.000000 10.000000 
BN_Head 0.000000 0.000000 0.000000 0.000000 0.000000 0.000000 10.000000 
BN_Needle 0.000000 0.000000 0.000000 0.000000 0.000000 0.000000 10.000000 
BN_R_Leg_Front02 0.000000 0.000000 0.000000 0.000000 0.000000 0.000000 10.000000 
BN_R_Leg_Front03 0.000000 0.000000 0.000000 0.000000 0.000000 0.000000 10.000000 
BN_R_Leg_Rear02 0.000000 0.000000 0.000000 0.000000 0.000000 0.000000 10.000000 
BN_R_Leg_Rear03 0.000000 0.000000 0.000000 0.000000 0.000000 0.000000 10.000000 
BN_SackDef01 0.000000 0.000000 0.000000 0.000000 0.000000 0.000000 10.000000 
BN_SackDef02 0.000000 0.000000 0.000000 0.000000 0.000000 0.000000 10.000000 
BN_SackDef03 0.000000 0.000000 0.000000 0.000000 0.000000 0.000000 10.000000 
BN_SackDef04 0.000000 0.000000 0.000000 0.000000 0.000000 0.000000 10.000000 
BN_SackDef05 0.000000 0.000000 0.000000 0.000000 0.000000 0.000000 10.000000 
BN_SackDef06 0.000000 0.000000 0.000000 0.000000 0.000000 0.000000 10.000000 
#Beginning of Data. Separated by tabs
#Fr	Tx	Ty	Tz	Rx	Ry	Rz	SF
[BN_Tick_Root]
204 -451.461365 1947.829224 -0.000730 0.000000 -0.000000 19.839741 1999.463989
205 -451.461365 1947.829224 -0.000730 0.000000 -0.000000 19.839745 1999.463989
206 -451.461365 1947.829224 -0.000730 0.000000 -0.000000 19.839741 1999.463989
207 -451.461365 1947.829224 -0.000730 0.000000 -0.000000 19.839741 1999.463989
[BN_Torso]
204 88.361481 63.922970 441.779419 -2.387669 0.617329 -13.743535 455.041687
205 86.041267 64.925598 441.757477 -2.399199 0.332886 -13.616182 454.717590
206 83.721153 65.928436 441.735321 -2.561749 0.042975 -13.459571 454.407166
207 81.858505 67.793694 440.770508 -2.725094 -0.246497 -13.302125 453.404266
[BN_L_Leg_Front01]
204 -68.477791 10.734189 -26.804373 -49.016891 53.027550 172.487808 74.316254
205 -68.477791 10.734189 -26.804373 -48.902260 52.937431 172.623764 74.316254
206 -68.477791 10.734189 -26.804373 -48.788193 52.847137 172.759125 74.316254
207 -68.477791 10.734189 -26.804373 -48.631687 52.854698 172.764709 74.316254
[BN_L_Leg_Rear01]
204 -72.133743 -73.994843 -18.268616 91.413429 -1.671026 -113.389893 104.939293
205 -72.133743 -73.994843 -18.268616 91.306252 -1.711608 -113.246216 104.939293
206 -72.133743 -73.994843 -18.268616 91.198967 -1.751914 -113.102463 104.939293
207 -72.133743 -73.994843 -18.268616 91.162834 -1.750554 -113.025246 104.939293
[BN_MetalTop]
204 0.000008 13.737477 26.403606 90.000008 -12.928561 -89.999992 29.763546
205 0.000008 13.737477 26.403606 90.000008 -12.928561 -89.999992 29.763546
206 0.000008 13.737477 26.403606 90.000008 -12.928561 -89.999992 29.763546
207 0.000008 13.737477 26.403606 90.000008 -12.928561 -89.999992 29.763546
[BN_Neck]
204 0.000014 95.233284 10.002091 -90.014595 -76.269119 90.013412 95.757088
205 0.000014 95.233284 10.002091 -90.014862 -77.304039 90.013702 95.757088
206 0.000014 95.233284 10.002091 -89.995537 -77.993423 89.994392 95.757088
207 0.000014 95.233284 10.002091 -90.006035 -78.380127 90.004852 95.757088
[BN_R_Leg_Front01]
204 68.477768 10.734107 -26.804314 -77.410286 70.394913 -172.870346 74.316193
205 68.477768 10.734107 -26.804314 -77.922722 70.164696 -172.971420 74.316193
206 68.477768 10.734107 -26.804314 -78.434204 69.986481 -172.753876 74.316193
207 68.477768 10.734107 -26.804314 -78.956009 69.865005 -172.209610 74.316193
[BN_R_Leg_Rear01]
204 72.133751 -73.994873 -18.268644 -73.320999 66.661263 -76.536446 104.939331
205 72.133751 -73.994873 -18.268644 -73.547302 66.823402 -76.659416 104.939331
206 72.133751 -73.994873 -18.268644 -73.775955 66.985359 -76.784798 104.939331
207 72.133751 -73.994873 -18.268644 -73.794136 67.141937 -76.636803 104.939331
[BN_Sack]
204 -0.000000 -78.024918 33.657791 90.003044 9.430352 -89.998451 84.974907
205 -0.000000 -78.024918 33.657791 90.002197 10.321671 -89.999825 84.974907
206 -0.000000 -78.024918 33.657791 90.001312 11.213029 -90.001213 84.974907
207 -0.000000 -78.024918 33.657791 90.000397 12.104366 -90.002609 84.974907
[BN_L_Leg_Front02]
204 142.805023 -0.000015 -0.000104 -0.238823 0.876893 -118.485481 142.805023
205 142.805023 -0.000015 -0.000104 -0.227585 0.870783 -117.512779 142.805023
206 142.805023 -0.000015 -0.000104 -0.217732 0.869646 -116.770882 142.805023
207 142.805023 -0.000015 -0.000104 -0.213710 0.867048 -116.345909 142.805023
[BN_L_Leg_Front03]
204 124.143021 -0.000045 0.000007 0.352373 -0.153426 160.152679 124.143021
205 124.143021 -0.000045 0.000007 0.351961 -0.159514 159.617966 124.143021
206 124.143021 -0.000045 0.000007 0.352539 -0.158233 159.200806 124.143021
207 124.143021 -0.000045 0.000007 0.353331 -0.159905 158.954315 124.143021
[BN_L_Leg_Rear02]
204 139.939041 0.000075 -0.000022 0.437003 -0.550724 -16.154879 139.939041
205 139.939041 0.000075 -0.000022 0.438437 -0.550383 -16.198595 139.939041
206 139.939041 0.000075 -0.000022 0.439870 -0.550041 -16.242283 139.939041
207 139.939041 0.000075 -0.000022 0.437958 -0.550497 -16.183996 139.939041
[BN_L_Leg_Rear03]
204 142.839615 0.000179 -0.000060 0.000071 0.002346 -86.554138 142.839615
205 142.839615 0.000179 -0.000060 0.000071 0.002346 -86.516800 142.839615
206 142.839615 0.000179 -0.000060 0.000072 0.002346 -86.479485 142.839615
207 142.839615 0.000179 -0.000060 0.000069 0.002346 -86.610947 142.839615
[BN_Head]
204 57.062447 -0.000030 0.000000 0.002260 0.000636 58.573830 57.062447
205 57.062447 -0.000030 0.000000 0.002265 0.000615 59.631226 57.062447
206 57.062447 -0.000030 0.000000 0.002269 0.000601 60.339230 57.062447
207 57.062447 -0.000030 0.000000 0.002271 0.000593 60.734295 57.062447
[BN_Needle]
204 31.987183 17.178379 -0.000102 0.000003 0.000030 87.896805 36.308079
205 31.906199 14.972097 -0.000114 0.000003 0.000030 87.896805 35.244419
206 31.883537 14.355089 -0.000064 0.000003 0.000030 87.896805 34.966106
207 31.860880 13.738071 -0.000013 0.000003 0.000030 87.896805 34.696545
[BN_R_Leg_Front02]
204 142.804947 -0.000060 0.000060 0.466264 1.118088 173.292160 142.804947
205 142.804947 -0.000060 0.000060 0.457142 1.112291 172.816345 142.804947
206 142.804947 -0.000060 0.000060 0.443058 1.104936 172.057632 142.804947
207 142.804947 -0.000060 0.000060 0.429073 1.097397 171.298843 142.804947
[BN_R_Leg_Front03]
204 124.143005 -0.000060 -0.000156 -0.353068 -0.165186 -158.727936 124.143005
205 124.143005 -0.000060 -0.000156 -0.351982 -0.166626 -158.570251 124.143005
206 124.143005 -0.000060 -0.000156 -0.353089 -0.168842 -158.237747 124.143005
207 124.143005 -0.000060 -0.000156 -0.354209 -0.171053 -157.905243 124.143005
[BN_R_Leg_Rear02]
204 139.939011 -0.000149 0.000015 0.118192 -0.254264 -152.752274 139.939011
205 139.939011 -0.000149 0.000015 0.118604 -0.254072 -152.937958 139.939011
206 139.939011 -0.000149 0.000015 0.119015 -0.253879 -153.123581 139.939011
207 139.939011 -0.000149 0.000015 0.118965 -0.253903 -153.100693 139.939011
[BN_R_Leg_Rear03]
204 142.839417 0.000075 0.000119 0.001965 -0.001284 156.343613 142.839417
205 142.839417 0.000075 0.000119 0.001963 -0.001287 156.485077 142.839417
206 142.839417 0.000075 0.000119 0.001963 -0.001287 156.496857 142.839417
207 142.839417 0.000075 0.000119 0.001963 -0.001287 156.508652 142.839417
[BN_SackDef01]
204 249.782272 -3.760844 42.949425 -128.408218 -44.374973 -11.740845 253.475800
205 249.782272 -3.760844 42.949425 -128.408218 -44.374973 -11.740845 253.475800
206 249.782272 -3.760844 42.949425 -128.408218 -44.374973 -11.740845 253.475800
207 249.782272 -3.760844 42.949425 -128.408218 -44.374973 -11.740845 253.475800
[BN_SackDef02]
204 138.789795 -62.131748 45.674385 32.077126 -27.375721 -88.781525 158.773758
205 138.789795 -62.131748 45.674385 32.077126 -27.375721 -88.781525 158.773758
206 138.789795 -62.131748 45.674385 32.077126 -27.375721 -88.781525 158.773758
207 138.789795 -62.131748 45.674385 32.077126 -27.375721 -88.781525 158.773758
[BN_SackDef03]
204 249.782272 -3.760785 -42.949661 18.144459 44.375008 -11.740894 253.475845
205 249.782272 -3.760785 -42.949661 18.144459 44.375008 -11.740894 253.475845
206 249.782272 -3.760785 -42.949661 18.144459 44.375008 -11.740894 253.475845
207 249.782272 -3.760785 -42.949661 18.144459 44.375008 -11.740894 253.475845
[BN_SackDef04]
204 138.789780 -62.131645 -45.674473 146.059982 27.375723 -88.781555 158.773743
205 138.789780 -62.131645 -45.674473 146.059982 27.375723 -88.781555 158.773743
206 138.789780 -62.131645 -45.674473 146.059982 27.375723 -88.781555 158.773743
207 138.789780 -62.131645 -45.674473 146.059982 27.375723 -88.781555 158.773743
[BN_SackDef05]
204 118.790161 46.167137 -63.831196 0.155741 51.314110 90.605110 142.537460
205 118.790161 46.167137 -63.831196 0.155741 51.314110 90.605110 142.537460
206 118.790161 46.167137 -63.831196 0.155741 51.314110 90.605110 142.537460
207 118.790161 46.167137 -63.831196 0.155741 51.314110 90.605110 142.537460
[BN_SackDef06]
204 118.790207 46.167194 63.831219 152.058487 -51.314072 90.605019 142.537537
205 118.790207 46.167194 63.831219 152.058487 -51.314072 90.605019 142.537537
206 118.790207 46.167194 63.831219 152.058487 -51.314072 90.605019 142.537537
207 118.790207 46.167194 63.831219 152.058487 -51.314072 90.605019 142.537537
